<svg width="83" height="255" viewBox="0 0 83 255" fill="none" xmlns="http://www.w3.org/2000/svg">
<path d="M74.592 120.096C80.16 120.288 82.944 122.688 82.944 127.296C82.944 131.712 80.16 134.208 74.592 134.784C66.912 135.168 61.536 137.184 58.464 140.832C55.584 144.288 54.144 150.048 54.144 158.112L53.568 228.096C53.568 236.736 51.36 243.36 46.944 247.968C42.528 252.576 36 254.88 27.36 254.88H8.352C5.664 254.88 3.552 254.208 2.016 252.864C0.672 251.712 0 250.08 0 247.968C0 245.664 0.768 243.84 2.304 242.496C3.84 241.152 5.856 240.48 8.352 240.48H23.616C32.064 240.48 36.288 236.064 36.288 227.232V156.384C36.288 148.128 38.208 141.6 42.048 136.8C46.08 131.808 50.88 128.64 56.448 127.296C50.88 125.952 46.08 122.88 42.048 118.08C38.208 113.088 36.288 106.464 36.288 98.208V27.648C36.288 18.816 32.064 14.4 23.616 14.4H8.352C5.856 14.4 3.84 13.728 2.304 12.384C0.768 11.04 0 9.216 0 6.912C0 4.8 0.672 3.16801 2.016 2.01601C3.552 0.672005 5.664 0 8.352 0H27.36C36 0 42.528 2.304 46.944 6.912C51.36 11.52 53.568 18.144 53.568 26.784V96.48C53.568 104.352 55.104 110.112 58.176 113.76C61.248 117.408 66.72 119.52 74.592 120.096Z" fill="#DBEAF7"/>
</svg>
